<?xml version="1.0" encoding="UTF-8" standalone="no"?>
<!-- Generator: Adobe Illustrator 14.0.0, SVG Export Plug-In . SVG Version: 6.00 Build 43363)  -->

<svg
   xmlns:osb="http://www.openswatchbook.org/uri/2009/osb"
   xmlns:dc="http://purl.org/dc/elements/1.1/"
   xmlns:cc="http://creativecommons.org/ns#"
   xmlns:rdf="http://www.w3.org/1999/02/22-rdf-syntax-ns#"
   xmlns:svg="http://www.w3.org/2000/svg"
   xmlns="http://www.w3.org/2000/svg"
   xmlns:xlink="http://www.w3.org/1999/xlink"
   xmlns:sodipodi="http://sodipodi.sourceforge.net/DTD/sodipodi-0.dtd"
   xmlns:inkscape="http://www.inkscape.org/namespaces/inkscape"
   id="Layer_1"
   enable-background="new 0 0 720 720"
   xml:space="preserve"
   viewBox="0 0 720 720"
   version="1.1"
   y="0px"
   x="0px"
   sodipodi:docname="illusion34.svg"
   inkscape:version="0.92.3 (2405546, 2018-03-11)"><defs
   id="defs80"><linearGradient
     id="linearGradient3177"
     osb:paint="solid"><stop
       style="stop-color:#001495;stop-opacity:0.98823529;"
       offset="0"
       id="stop3175" /></linearGradient><linearGradient
     inkscape:collect="always"
     xlink:href="#linearGradient3177"
     id="linearGradient3179"
     x1="220"
     y1="360"
     x2="500"
     y2="360"
     gradientUnits="userSpaceOnUse" /></defs><sodipodi:namedview
   pagecolor="#ffffff"
   bordercolor="#666666"
   borderopacity="1"
   objecttolerance="10"
   gridtolerance="10"
   guidetolerance="10"
   inkscape:pageopacity="0"
   inkscape:pageshadow="2"
   inkscape:window-width="1533"
   inkscape:window-height="839"
   id="namedview78"
   showgrid="false"
   inkscape:zoom="0.86388889"
   inkscape:cx="97.813505"
   inkscape:cy="274.94319"
   inkscape:window-x="67"
   inkscape:window-y="27"
   inkscape:window-maximized="1"
   inkscape:current-layer="Layer_1" />
<path
   d="m360 220c-77.32 0-140 62.68-140 140s62.68 140 140 140c77.319 0 140-62.68 140-140s-62.68-140-140-140zm24.41 238.36c-54.323 0-98.36-44.037-98.36-98.359s44.037-98.36 98.36-98.36c54.322 0 98.358 44.038 98.358 98.36s-44.04 98.36-98.36 98.36z"
   fill="#C1272D"
   id="path65"
   style="fill:url(#linearGradient3179);fill-opacity:1;opacity:1" />
<path
   d="m383.69 450.46c49.962 0 90.462-40.5 90.462-90.461s-40.5-90.461-90.462-90.461c-49.961 0-90.462 40.5-90.462 90.461s40.5 90.46 90.46 90.46zm-15.77-154.02c35.102 0 63.556 28.455 63.556 63.556 0 35.102-28.454 63.557-63.556 63.557-35.101 0-63.555-28.455-63.555-63.557 0.01-35.1 28.46-63.56 63.56-63.56z"
   fill="#ED1C24"
   id="path67"
   style="fill:#000157;fill-opacity:1" />
<path
   d="m369.77 302.38c-31.826 0-57.625 25.799-57.625 57.625 0 31.827 25.799 57.625 57.625 57.625 31.827 0 57.627-25.798 57.627-57.625 0-31.83-25.8-57.62-57.62-57.62zm10.04 98.11c-22.359 0-40.485-18.126-40.485-40.487 0-22.36 18.126-40.486 40.485-40.486s40.5 18.13 40.5 40.49c0 22.36-18.13 40.49-40.49 40.49z"
   fill="#F15A24"
   id="path69"
   style="fill:#2130a1;fill-opacity:1" />
<path
   d="m379.9 394.42c19.008 0 34.419-15.41 34.419-34.42 0-19.011-15.411-34.42-34.419-34.42-19.01 0-34.421 15.409-34.421 34.42 0 19.01 15.41 34.42 34.42 34.42zm-6-58.6c13.355 0 24.182 10.828 24.182 24.184 0 13.355-10.826 24.184-24.182 24.184s-24.182-10.828-24.182-24.184c0-13.36 10.82-24.18 24.18-24.18z"
   fill="#F7931E"
   id="path71"
   style="fill:#101768;fill-opacity:1" />
<path
   d="m373.29 339.81c-11.147 0-20.185 9.037-20.185 20.186 0 11.148 9.037 20.185 20.185 20.185 11.149 0 20.187-9.037 20.187-20.185 0.01-11.15-9.03-20.19-20.18-20.19zm3.52 34.37c-7.832 0-14.182-6.349-14.182-14.182 0-7.832 6.35-14.183 14.182-14.183s14.181 6.351 14.181 14.183c0 7.83-6.35 14.18-14.18 14.18z"
   fill="#FCEE21"
   id="path73"
   style="fill:#2b37b7;fill-opacity:1" />
<metadata
   id="metadata75"><rdf:RDF><cc:Work><dc:format>image/svg+xml</dc:format><dc:type
         rdf:resource="http://purl.org/dc/dcmitype/StillImage" /><cc:license
         rdf:resource="http://creativecommons.org/licenses/publicdomain/" /><dc:publisher><cc:Agent
           rdf:about="http://openclipart.org/"><dc:title>Openclipart</dc:title></cc:Agent></dc:publisher><dc:title></dc:title><dc:date>2011-03-23T00:27:52</dc:date><dc:description /><dc:source>https://openclipart.org/detail/128827/depth-illusion-by-jgm104</dc:source><dc:creator><cc:Agent><dc:title>jgm104</dc:title></cc:Agent></dc:creator><dc:subject><rdf:Bag><rdf:li>circle</rdf:li><rdf:li>depth illusion</rdf:li><rdf:li>off center</rdf:li><rdf:li>round</rdf:li></rdf:Bag></dc:subject></cc:Work><cc:License
       rdf:about="http://creativecommons.org/licenses/publicdomain/"><cc:permits
         rdf:resource="http://creativecommons.org/ns#Reproduction" /><cc:permits
         rdf:resource="http://creativecommons.org/ns#Distribution" /><cc:permits
         rdf:resource="http://creativecommons.org/ns#DerivativeWorks" /></cc:License></rdf:RDF></metadata></svg>