<svg width="720" height="720" xmlns="http://www.w3.org/2000/svg" xmlns:xlink="http://www.w3.org/1999/xlink">
 <defs>
  <linearGradient id="linearGradient3177">
   <stop stop-color="#001495" stop-opacity="0.98824" id="stop3175" offset="0"/>
  </linearGradient>
  <linearGradient y2="0.5" x2="1" y1="0.5" x1="0" id="linearGradient3179" xlink:href="#linearGradient3177"/>
 </defs>
 <metadata id="metadata75">image/svg+xmlOpenclipart2011-03-23T00:27:52https://openclipart.org/detail/128827/depth-illusion-by-jgm104jgm104circledepth illusionoff centerround</metadata>
 <g>
  <title>background</title>
  <rect fill="none" id="canvas_background" height="602" width="802" y="-1" x="-1"/>
 </g>
 <g>
  <title>Layer 1</title>
  <path id="path65" fill="url(#linearGradient3179)" d="m360,220c-77.32,0 -140,62.68 -140,140s62.68,140 140,140c77.319,0 140,-62.68 140,-140s-62.68,-140 -140,-140zm24.41,238.36c-54.323,0 -98.36,-44.037 -98.36,-98.359s44.037,-98.36 98.36,-98.36c54.322,0 98.358,44.038 98.358,98.36s-44.04,98.36 -98.36,98.36l0.002,-0.001z"/>
  <path id="path67" fill="#02047a" d="m383.69,450.46c49.962,0 90.462,-40.5 90.462,-90.461s-40.5,-90.461 -90.462,-90.461c-49.961,0 -90.462,40.5 -90.462,90.461s40.5,90.46 90.46,90.46l0.002,0.001zm-15.77,-154.02c35.102,0 63.556,28.455 63.556,63.556c0,35.102 -28.454,63.557 -63.556,63.557c-35.101,0 -63.555,-28.455 -63.555,-63.557c0.01,-35.1 28.46,-63.56 63.56,-63.56l-0.005,0.004z"/>
  <path id="path69" fill="#061154" d="m369.77,302.38c-31.826,0 -57.625,25.799 -57.625,57.625c0,31.827 25.799,57.625 57.625,57.625c31.827,0 57.627,-25.798 57.627,-57.625c0,-31.83 -25.8,-57.62 -57.62,-57.62l-0.007,-0.005zm10.04,98.11c-22.359,0 -40.485,-18.126 -40.485,-40.487c0,-22.36 18.126,-40.486 40.485,-40.486s40.5,18.13 40.5,40.49c0,22.36 -18.13,40.49 -40.49,40.49l-0.01,-0.007z"/>
  <path id="path71" fill="#070c42" d="m379.9,394.42c19.008,0 34.419,-15.41 34.419,-34.42c0,-19.011 -15.411,-34.42 -34.419,-34.42c-19.01,0 -34.421,15.409 -34.421,34.42c0,19.01 15.41,34.42 34.42,34.42l0.001,0zm-6,-58.6c13.355,0 24.182,10.828 24.182,24.184c0,13.355 -10.826,24.184 -24.182,24.184s-24.182,-10.828 -24.182,-24.184c0,-13.36 10.82,-24.18 24.18,-24.18l0.002,-0.004z"/>
  <path id="path73" fill="#030621" d="m373.29,339.81c-11.147,0 -20.185,9.037 -20.185,20.186c0,11.148 9.037,20.185 20.185,20.185c11.149,0 20.187,-9.037 20.187,-20.185c0.01,-11.15 -9.03,-20.19 -20.18,-20.19l-0.007,0.004zm3.52,34.37c-7.832,0 -14.182,-6.349 -14.182,-14.182c0,-7.832 6.35,-14.183 14.182,-14.183s14.181,6.351 14.181,14.183c0,7.83 -6.35,14.18 -14.18,14.18l-0.001,0.002z"/>
 </g>
</svg>